<svg xmlns="http://www.w3.org/2000/svg" width="160.36" height="381" viewBox="0 0 160.36 381"><title>bottle-icon</title><rect x="2.5" y="303.93" width="155.36" height="74.57" rx="7.07" fill="#7986cb"/><rect x="2.5" y="303.93" width="155.36" height="74.57" rx="7.07" fill="none" stroke="#ff9800" stroke-miterlimit="10" stroke-width="5"/><rect x="2.5" y="260.43" width="155.36" height="41.95" rx="7.07" fill="#7986cb"/><rect x="2.5" y="260.43" width="155.36" height="41.95" rx="7.07" fill="none" stroke="#ff9800" stroke-miterlimit="10" stroke-width="5"/><rect x="2.5" y="218.48" width="155.36" height="41.95" rx="7.07" fill="#7986cb"/><rect x="2.5" y="218.48" width="155.36" height="41.95" rx="7.07" fill="none" stroke="#ff9800" stroke-miterlimit="10" stroke-width="5"/><path d="M179.55,178H101.38V147A72.22,72.22,0,0,1,127.79,95.7L151.1,70.84H207L239.65,105a75.74,75.74,0,0,1,17.09,46.61V178Z" transform="translate(-98.88 -1.5)" fill="#7986cb" stroke="#ff9800" stroke-miterlimit="10" stroke-width="5"/><path d="M138.67,111.24c-3.48,1.57-5.59,4.85-9.32,17.08-6.91,22.6-4,25.64-3.11,26.41a7.5,7.5,0,0,0,4.66,1.56,8.82,8.82,0,0,0,6.21-3.11A61,61,0,0,1,148,119c1-3.11.36-6.2-1.56-7.76C143.66,109,139.39,110.91,138.67,111.24Z" transform="translate(-98.88 -1.5)" fill="#ffb74d"/><rect x="123.68" y="129.93" width="10.87" height="26.41" rx="1.71" fill="#ffb74d"/><rect x="2.5" y="176.54" width="155.36" height="41.95" rx="7.07" fill="#7986cb"/><rect x="2.5" y="176.54" width="155.36" height="41.95" rx="7.07" fill="none" stroke="#ff9800" stroke-miterlimit="10" stroke-width="5"/><path d="M179.06,49.09H143.33V14.91a9,9,0,0,1,1.55-7.76A9.11,9.11,0,0,1,152.65,4h55.93a8.32,8.32,0,0,1,6.21,3.11,7.79,7.79,0,0,1,1.55,4.66V49.09Z" transform="translate(-98.88 -1.5)" fill="#7986cb" stroke="#ff9800" stroke-miterlimit="10" stroke-width="5"/><rect x="52.21" y="47.59" width="57.48" height="21.75" fill="#7986cb" stroke="#ff9800" stroke-miterlimit="10" stroke-width="5"/></svg>