<svg xmlns="http://www.w3.org/2000/svg" width="337" height="284.32" viewBox="0 0 337 284.32"><title>certificate-icon</title><rect x="4.26" y="3.95" width="328.76" height="253.04" fill="#785396"/><rect x="153.69" y="239.06" width="31.88" height="33.87" fill="#ffa040"/><polygon points="26.17 51.77 26.17 211.17 50.08 237.07 287.19 237.07 311.1 211.17 311.1 51.77 287.19 25.87 48.09 25.87 26.17 51.77" fill="#ffa040"/><circle cx="167.64" cy="205.19" r="29.89" fill="#ffa040"/><rect x="79.97" y="59.74" width="177.33" height="27.89" fill="#785396"/><path d="M335.73,54H9.27A5.27,5.27,0,0,0,4,59.27V312a5.27,5.27,0,0,0,5.27,5.26H151.44v15.8a5.26,5.26,0,0,0,5.29,5.24,5.32,5.32,0,0,0,2.87-.87l12.9-8.58c13.16,8.79,14.69,10.53,18.27,8.84s2.79-5.21,2.79-20.43H335.73A5.27,5.27,0,0,0,341,312V59.27A5.27,5.27,0,0,0,335.73,54ZM146.17,259.36a26.33,26.33,0,1,1,26.33,26.33A26.33,26.33,0,0,1,146.17,259.36ZM172.5,222.5a36.86,36.86,0,0,0-25.75,63.19H56.13a26.32,26.32,0,0,0-20.54-20.54v-159A26.32,26.32,0,0,0,56.13,85.59H288.87a26.32,26.32,0,0,0,20.54,20.54v159a26.32,26.32,0,0,0-20.54,20.54H198.25A36.86,36.86,0,0,0,172.5,222.5ZM183,323.23c-12.06-8.06-9.11-8-21.06,0V294.69a36.83,36.83,0,0,0,21.06,0Zm147.44-16.48H193.56V296.22H293.61a5.26,5.26,0,0,0,5.26-5.27,15.8,15.8,0,0,1,15.8-15.79,5.27,5.27,0,0,0,5.27-5.27V101.39a5.27,5.27,0,0,0-5.27-5.27,15.8,15.8,0,0,1-15.8-15.79,5.26,5.26,0,0,0-5.26-5.27H51.39a5.26,5.26,0,0,0-5.26,5.27,15.8,15.8,0,0,1-15.8,15.79,5.27,5.27,0,0,0-5.27,5.27v168.5a5.27,5.27,0,0,0,5.27,5.27A15.8,15.8,0,0,1,46.13,291a5.26,5.26,0,0,0,5.26,5.27H151.44v10.53H14.53V64.53H330.47Z" transform="translate(-4 -54)"/><path d="M262,106.66H83a5.26,5.26,0,0,0-5.26,5.26v31.6A5.27,5.27,0,0,0,83,148.78H262a5.27,5.27,0,0,0,5.26-5.26v-31.6A5.26,5.26,0,0,0,262,106.66Zm-5.27,31.59H88.25V117.19h168.5Z" transform="translate(-4 -54)"/><path d="M262,169.84H83a5.27,5.27,0,0,0,0,10.54H262a5.27,5.27,0,0,0,0-10.54Z" transform="translate(-4 -54)"/><path d="M262,196.17H83a5.27,5.27,0,0,0,0,10.53H262a5.27,5.27,0,0,0,0-10.53Z" transform="translate(-4 -54)"/><path d="M114.58,248.83H83a5.27,5.27,0,0,0,0,10.53h31.6a5.27,5.27,0,0,0,0-10.53Z" transform="translate(-4 -54)"/><path d="M262,248.83h-31.6a5.27,5.27,0,0,0,0,10.53H262a5.27,5.27,0,0,0,0-10.53Z" transform="translate(-4 -54)"/></svg>