<svg xmlns="http://www.w3.org/2000/svg" width="336.33" height="320.79" viewBox="0 0 336.33 320.79"><title>cool-home</title><path d="M322,125.21V325.5H13V125.21H322m11-11H2V336.5H333V114.21Z" transform="translate(0.84 -15.71)" fill="#ffa040"/><polyline points="2.67 98.3 168.37 6.29 333.66 98.3" fill="none" stroke="#ffa040" stroke-miterlimit="10" stroke-width="11"/><polygon points="172.64 292.14 172.64 116.83 172.64 204.48 172.64 292.14" fill="none" stroke="#3fa9f5" stroke-miterlimit="10" stroke-width="6"/><polyline points="248.3 247.85 172.64 204.48 248.3 160.19" fill="none" stroke="#3fa9f5" stroke-miterlimit="10" stroke-width="6"/><polyline points="97.9 160.19 172.64 204.48 97.9 247.85" fill="none" stroke="#3fa9f5" stroke-miterlimit="10" stroke-width="6"/><polyline points="198.48 274.61 172.64 255.84 147.73 274.61" fill="none" stroke="#3fa9f5" stroke-miterlimit="10" stroke-width="6"/><polyline points="220.62 260.77 219.26 231.2 246.46 217.4" fill="none" stroke="#3fa9f5" stroke-miterlimit="10" stroke-width="6"/><polyline points="246.46 191.56 219.7 178.65 220.62 147.28" fill="none" stroke="#3fa9f5" stroke-miterlimit="10" stroke-width="6"/><polyline points="198.48 133.44 173.1 151.18 147.73 134.36" fill="none" stroke="#3fa9f5" stroke-miterlimit="10" stroke-width="6"/><polyline points="99.75 217.4 126.83 231.06 124.66 260.77" fill="none" stroke="#3fa9f5" stroke-miterlimit="10" stroke-width="6"/><polyline points="125.58 147.28 126.83 177.34 99.75 191.56" fill="none" stroke="#3fa9f5" stroke-miterlimit="10" stroke-width="6"/></svg>