<svg xmlns="http://www.w3.org/2000/svg" width="330.44" height="247.83" viewBox="0 0 330.44 247.83"><title>guide-icon</title><path d="M33.38,90H12.72V306.84H332.84V90H312.18" transform="translate(-7.56 -64.17)" fill="#ff6d00"/><path d="M172.78,90V306.84a70.52,70.52,0,0,0-49.88-20.66H33.38V69.33H122.9A70.52,70.52,0,0,1,172.78,90Z" transform="translate(-7.56 -64.17)" fill="#fff"/><path d="M172.78,90V306.84a70.54,70.54,0,0,1,49.88-20.66h89.52V69.33H222.66A70.54,70.54,0,0,0,172.78,90Z" transform="translate(-7.56 -64.17)" fill="#fff"/><path d="M332.84,84.82H317.35V69.33a5.16,5.16,0,0,0-5.17-5.16H222.66A75.07,75.07,0,0,0,172.78,83,75,75,0,0,0,122.9,64.17H33.38a5.16,5.16,0,0,0-5.17,5.16V84.82H12.72A5.16,5.16,0,0,0,7.56,90V306.84A5.16,5.16,0,0,0,12.72,312H332.84a5.16,5.16,0,0,0,5.16-5.16V90A5.16,5.16,0,0,0,332.84,84.82ZM307,74.5V281H222.66a75,75,0,0,0-44.72,14.61V92.15A64.9,64.9,0,0,1,222.66,74.5Zm-268.48,0H122.9a64.88,64.88,0,0,1,44.72,17.65V295.63A75,75,0,0,0,122.9,281H38.54ZM17.89,95.15H28.21v191a5.16,5.16,0,0,0,5.17,5.17H122.9a64.78,64.78,0,0,1,35.22,10.32H17.89ZM327.67,301.67H187.44c21.48-13.78,32.22-10.32,124.74-10.32a5.16,5.16,0,0,0,5.17-5.17v-191h10.32Z" transform="translate(-7.56 -64.17)"/><path d="M69.52,105.48c55.4,0,63.76-1.71,80.49,5.88a5.16,5.16,0,0,0,4.23-9.4c-19.87-9-32.57-6.81-84.72-6.81a5.17,5.17,0,0,0,0,10.33Z" transform="translate(-7.56 -64.17)" fill="#4a2968"/><path d="M154.24,127.78A74.9,74.9,0,0,0,126.57,121a5.17,5.17,0,0,0-.52,10.33,64.86,64.86,0,0,1,24,5.78,5.16,5.16,0,0,0,4.23-9.29Z" transform="translate(-7.56 -64.17)" fill="#4a2968"/><path d="M54,131.29h51.63a5.17,5.17,0,0,0,0-10.33H54a5.17,5.17,0,0,0,0,10.33Z" transform="translate(-7.56 -64.17)" fill="#4a2968"/><path d="M54,157.11c71.82,0,78.84-1.91,96,5.88a5.16,5.16,0,0,0,4.23-9.39c-19.77-9-29.48-6.82-100.21-6.82a5.17,5.17,0,0,0,0,10.33Z" transform="translate(-7.56 -64.17)" fill="#4a2968"/><path d="M154.24,179.41c-17.6-7.95-30.15-6.81-48.58-6.81a5.16,5.16,0,1,0,0,10.32c17.81,0,28.91-1.13,44.35,5.89a5.16,5.16,0,0,0,4.23-9.4Z" transform="translate(-7.56 -64.17)" fill="#4a2968"/><path d="M54,182.92H85a5.16,5.16,0,0,0,0-10.32H54a5.16,5.16,0,0,0,0,10.32Z" transform="translate(-7.56 -64.17)" fill="#4a2968"/><path d="M54,208.74c71.82,0,78.84-1.91,96,5.88a5.16,5.16,0,0,0,4.23-9.39c-19.77-9-29.48-6.82-100.21-6.82a5.17,5.17,0,0,0,0,10.33Z" transform="translate(-7.56 -64.17)" fill="#4a2968"/><path d="M154.24,231c-19.41-8.83-33.09-6.81-69.23-6.81a5.16,5.16,0,1,0,0,10.32c37.58,0,48.53-1.6,65,5.89a5.16,5.16,0,0,0,4.23-9.4Z" transform="translate(-7.56 -64.17)" fill="#4a2968"/><path d="M54,234.55H64.36a5.16,5.16,0,0,0,0-10.32H54a5.16,5.16,0,1,0,0,10.32Z" transform="translate(-7.56 -64.17)" fill="#4a2968"/><path d="M54,260.37H122.9a5.17,5.17,0,1,0,0-10.33H54a5.17,5.17,0,0,0,0,10.33Z" transform="translate(-7.56 -64.17)" fill="#4a2968"/><path d="M222.66,105.48h68.87a5.17,5.17,0,1,0,0-10.33H222.66a5.17,5.17,0,1,0,0,10.33Z" transform="translate(-7.56 -64.17)" fill="#4a2968"/><path d="M193.43,137.64a86.12,86.12,0,0,1,29.23-6.35h68.87a5.17,5.17,0,1,0,0-10.33c-72.28,0-80.9-2-100.21,6.82a5.16,5.16,0,0,0,2.11,9.86Z" transform="translate(-7.56 -64.17)" fill="#4a2968"/><path d="M291.53,146.78h-31a5.17,5.17,0,0,0,0,10.33h31a5.17,5.17,0,1,0,0-10.33Z" transform="translate(-7.56 -64.17)" fill="#4a2968"/><path d="M193.43,163.46a85.89,85.89,0,0,1,29.23-6.35H239.9a5.17,5.17,0,0,0,0-10.33c-18.53,0-31-1.14-48.58,6.82a5.16,5.16,0,0,0,2.11,9.86Z" transform="translate(-7.56 -64.17)" fill="#4a2968"/><path d="M193.43,189.27a86.36,86.36,0,0,1,29.23-6.35h68.87a5.16,5.16,0,1,0,0-10.32c-72.28,0-80.9-2-100.21,6.81a5.16,5.16,0,0,0,2.11,9.86Z" transform="translate(-7.56 -64.17)" fill="#4a2968"/><path d="M291.53,198.41h-5.16a5.17,5.17,0,0,0,0,10.33h5.16a5.17,5.17,0,1,0,0-10.33Z" transform="translate(-7.56 -64.17)" fill="#4a2968"/><path d="M193.43,215.09a85.89,85.89,0,0,1,29.23-6.35h43.06a5.17,5.17,0,0,0,0-10.33c-42.19,0-55.4-1.86-74.4,6.82a5.16,5.16,0,0,0,2.11,9.86Z" transform="translate(-7.56 -64.17)" fill="#4a2968"/><path d="M291.53,224.23h-41.3a5.16,5.16,0,1,0,0,10.32h41.3a5.16,5.16,0,1,0,0-10.32Z" transform="translate(-7.56 -64.17)" fill="#4a2968"/><path d="M193.43,240.9a86.36,86.36,0,0,1,29.23-6.35h6.91a5.16,5.16,0,1,0,0-10.32A81.46,81.46,0,0,0,191.32,231a5.16,5.16,0,0,0,2.11,9.86Z" transform="translate(-7.56 -64.17)" fill="#4a2968"/><path d="M193.43,266.72a85.89,85.89,0,0,1,29.23-6.35H276A5.17,5.17,0,1,0,276,250c-56.79,0-65.93-1.75-84.72,6.82a5.16,5.16,0,0,0,2.11,9.86Z" transform="translate(-7.56 -64.17)" fill="#4a2968"/></svg>