<svg xmlns="http://www.w3.org/2000/svg"><title>long-term-icon</title><path d="M285.86,42V25.55a28.26,28.26,0,0,0-55-3.66V40.18l.91,8.23" transform="translate(0 -1.74)" fill="#f57c00"/><path d="M247.38,82.2a9.93,9.93,0,0,0,.24,2.43,12.6,12.6,0,0,0,12.59,9.77,11.74,11.74,0,0,0,11-12V27.87a11.93,11.93,0,0,0-23.82-1.15Z" transform="translate(0 -1.74)" fill="#7986cb"/><path d="M201.57,42V23.72a29.71,29.71,0,0,0-56.81-1.83V42" transform="translate(0 -1.74)" fill="#f57c00"/><path d="M117.28,42V25.55C114.37,11.43,101.82,1.44,88,1.77a29.51,29.51,0,0,0-27.49,22V42" transform="translate(0 -1.74)" fill="#f57c00"/><path d="M77,84.08c1,6.66,6.79,11.32,12.83,11a12.48,12.48,0,0,0,11-9.15V25.55A12.11,12.11,0,0,0,77,27.38Z" transform="translate(0 -1.74)" fill="#7986cb"/><path d="M161.26,82.2a9.93,9.93,0,0,0,.24,2.43c1.49,6,6.92,10.09,12.58,9.77a11.74,11.74,0,0,0,11-12V27.87a11.93,11.93,0,0,0-23.82-1.15Z" transform="translate(0 -1.74)" fill="#7986cb"/><rect y="40.27" width="344.5" height="340.25" rx="25.12" fill="#ff9800"/><rect x="23.82" y="102.46" width="296.86" height="31.1" fill="#7986cb"/><rect x="23.82" y="117.1" width="296.86" height="239.64" rx="12.58" fill="#7986cb"/><rect x="51.31" y="151.85" width="49.48" height="42.07" fill="#ffb74d"/><rect x="115.44" y="151.85" width="49.48" height="42.07" fill="#ffb74d"/><rect x="179.58" y="151.85" width="49.48" height="42.07" fill="#ffb74d"/><rect x="243.72" y="151.85" width="49.48" height="42.07" fill="#ffb74d"/><rect x="51.31" y="210.39" width="49.48" height="42.07" fill="#ffb74d"/><rect x="115.44" y="210.39" width="49.48" height="42.07" fill="#ffb74d"/><rect x="179.58" y="210.39" width="49.48" height="42.07" fill="#ffb74d"/><rect x="243.72" y="210.39" width="49.48" height="42.07" fill="#ffb74d"/><rect x="51.31" y="267.1" width="49.48" height="42.07" fill="#ffb74d"/><rect x="115.44" y="267.1" width="49.48" height="42.07" fill="#ffb74d"/><rect x="179.58" y="267.1" width="49.48" height="42.07" fill="#ffb74d"/><rect x="243.72" y="267.1" width="49.48" height="42.07" fill="#ffb74d"/></svg>