<svg xmlns="http://www.w3.org/2000/svg" xmlns:xlink="http://www.w3.org/1999/xlink" width="162.13" height="162.13" viewBox="0 0 162.13 162.13"><defs><linearGradient id="a" x1="75.08" y1="88" x2="75.08" y2="150" gradientTransform="matrix(1, 0, 0, -1, 0, 240)" gradientUnits="userSpaceOnUse"><stop offset="0" stop-color="#6ab891"/><stop offset="1" stop-color="#85cba9"/></linearGradient><linearGradient id="b" x1="75.08" y1="93" x2="75.08" y2="117" gradientTransform="matrix(1, 0, 0, -1, -40.87, 200.06)" gradientUnits="userSpaceOnUse"><stop offset="0" stop-color="#d4d8e1"/><stop offset="1" stop-color="#f3f4f5"/></linearGradient><linearGradient id="c" x1="75.08" y1="137" x2="75.08" y2="150" xlink:href="#b"/><linearGradient id="d" x1="101.08" y1="104" x2="101.08" y2="124" gradientTransform="matrix(1, 0, 0, -1, 0, 240)" gradientUnits="userSpaceOnUse"><stop offset="0" stop-color="#9dd5df"/><stop offset="1" stop-color="#c3e1f5"/></linearGradient><linearGradient id="e" x1="101.08" y1="106" x2="101.08" y2="115.95" gradientTransform="matrix(1, 0, 0, -1, 0, 240)" gradientUnits="userSpaceOnUse"><stop offset="0" stop-color="#da5466"/><stop offset="1" stop-color="#f4929c"/></linearGradient><linearGradient id="f" x1="162.29" y1="88.99" x2="162.29" y2="138.99" gradientTransform="matrix(1, 0, 0, -1, 0, 240)" xlink:href="#b"/><linearGradient id="g" x1="162.29" y1="103.99" x2="162.29" y2="129.99" gradientTransform="matrix(1, 0, 0, -1, 0, 240)" gradientUnits="userSpaceOnUse"><stop offset="0" stop-color="#d1a788"/><stop offset="1" stop-color="#f2d3b8"/></linearGradient><linearGradient id="h" x1="162.29" y1="107.99" x2="162.29" y2="125.99" gradientTransform="matrix(1, 0, 0, -1, -40.87, 200.06)" xlink:href="#a"/><linearGradient id="j" x1="162.29" y1="138.99" x2="162.29" y2="144.99" gradientTransform="matrix(1, 0, 0, -1, 0, 240)" xlink:href="#b"/><linearGradient id="k" x1="162.29" y1="144.99" x2="162.29" y2="150.99" xlink:href="#b"/></defs><title>no-coffee-alcohol</title><path d="M79.08,109V90h-8c0,19.61-.1,19,0,19a11.55,11.55,0,0,0-7,10.62V152h22V119.62A11.55,11.55,0,0,0,79.08,109Z" transform="translate(-40.87 -39.94)" fill="url(#a)"/><rect x="23.21" y="83.06" width="22" height="24" fill="url(#b)"/><rect x="23.21" y="104.06" width="22" height="3" fill="#c7cdd8"/><rect x="30.21" y="50.06" width="8" height="13" fill="url(#c)"/><rect x="30.21" y="61.06" width="8" height="2" fill="#c7cdd8"/><rect x="23.21" y="110.06" width="22" height="2" fill="#4da67f"/><path d="M110.08,124.89c0,7.11-6.43,11.11-9,11.11s-9-4-9-11.11A26.83,26.83,0,0,1,93.37,116h15.42A26.83,26.83,0,0,1,110.08,124.89Z" transform="translate(-40.87 -39.94)" fill="url(#d)"/><path d="M101.08,134c-1.34,0-7-3-7-9.11,0,0,2,1.89,7,0s7,0,7,0C108.08,131,102.42,134,101.08,134Z" transform="translate(-40.87 -39.94)" fill="url(#e)"/><path d="M80.08,108.36V95a1,1,0,0,0,0-2V90a1,1,0,0,0-1-1h-8a1,1,0,0,0-1,1v3a1,1,0,1,0,0,2v13.36a12.53,12.53,0,0,0-7,11.26V152a1,1,0,0,0,1,1h22a1,1,0,0,0,1-1V119.62A12.54,12.54,0,0,0,80.08,108.36ZM72.08,91h6v2h-6Zm6,4v7h-6V95Zm7,51h-20V124h20Zm-20,5v-3h20v3Zm20-29h-20v-2.38a10.53,10.53,0,0,1,6.39-9.7c.84-.36.61-.83.61-5.92h6c0,5.25-.2,5.57.61,5.92a10.55,10.55,0,0,1,6.39,9.7Z" transform="translate(-40.87 -39.94)" fill="#231f20"/><path d="M107.08,151h-3a2,2,0,0,1-2-2V137.86a12.66,12.66,0,0,0,9-12,27.92,27.92,0,0,0-1.35-9.25,1,1,0,0,0-.94-.64c-16.53,0-16-.26-16.36.64a27.84,27.84,0,0,0-1.35,9.28,12.64,12.64,0,0,0,9,12V149a2,2,0,0,1-2,2h-3a1,1,0,1,0,0,2h12a1,1,0,0,0,0-2Zm-14-25.11a29.19,29.19,0,0,1,1-7.89h14a29.19,29.19,0,0,1,1,7.89c0,6.52-6,10.11-8,10.11S93.08,132.41,93.08,125.89Z" transform="translate(-40.87 -39.94)" fill="#231f20"/><path d="M183.29,101l-5,50h-32c-2.51-25.13-3.6-36-5-50Z" transform="translate(-40.87 -39.94)" fill="url(#f)"/><path d="M183.39,110l-2.6,26h-37l-2.6-26Z" transform="translate(-40.87 -39.94)" fill="url(#g)"/><polygon points="140.22 93.07 139.92 96.07 102.92 96.07 102.62 93.07 140.22 93.07" fill="#cba07a"/><polygon points="137.72 108.07 137.42 111.07 105.42 111.07 105.12 108.07 137.72 108.07" fill="#c7cdd8"/><circle cx="121.42" cy="83.07" r="9" fill="url(#h)"/><circle cx="121.42" cy="83.07" r="9" fill="url(#h)"/><path d="M162.29,132a9,9,0,0,1-9-9,8.26,8.26,0,0,1,.06-1,9,9,0,0,0,17.88,0,9,9,0,0,1-7.94,9.94A8.51,8.51,0,0,1,162.29,132Z" transform="translate(-40.87 -39.94)" fill="#4da67f"/><path d="M143.29,95h38a4,4,0,0,1,4,4v2h-46V99A4,4,0,0,1,143.29,95Z" transform="translate(-40.87 -39.94)" fill="url(#j)"/><polygon points="139.42 55.07 103.42 55.07 105.42 49.07 137.42 49.07 139.42 55.07" fill="url(#k)"/><polygon points="142.42 61.07 142.12 64.07 100.72 64.07 100.42 61.07 142.42 61.07" fill="#dfe3ea"/><path d="M162.29,133a10,10,0,1,0-10-10A10,10,0,0,0,162.29,133Zm0-18a8,8,0,1,1-8,8A8,8,0,0,1,162.29,115Z" transform="translate(-40.87 -39.94)" fill="#231f20"/><path d="M181.29,94c-.4,0,0,.75-2-5.32a1,1,0,0,0-1-.68h-32a1,1,0,0,0-.95.68L143.57,94a5,5,0,0,0-5.27,4.71,2.81,2.81,0,0,0,0,.29v2a1,1,0,0,0,1,1h1.09l.71,7a1,1,0,0,0-.9,1.08l2.6,26a1,1,0,0,0,1,.9c.14,0-.06-1.5,1.5,14.1a1,1,0,0,0,1,.9h32a1,1,0,0,0,1-.9L180.7,137a1,1,0,0,0,1.09-.9c2.83-28.32,2.77-26.3,2.34-26.77-.84-.89-.84,1.67.07-7.33h1.09a1,1,0,0,0,1-1V99A5,5,0,0,0,181.29,94ZM147,90h30.56l1.33,4H145.68Zm30.38,60h-30.2l-1.29-13h32.78Zm2.5-15h-35.2l-2.4-24h40Zm1.6-26h-38.4l-.7-7h39.8Zm2.8-9h-44V99a3,3,0,0,1,3-3h38a3,3,0,0,1,3,3Z" transform="translate(-40.87 -39.94)" fill="#231f20"/><circle cx="81.06" cy="81.06" r="76.06" fill="none" stroke="#ff4d29" stroke-miterlimit="10" stroke-width="10"/><line x1="24.04" y1="30.73" x2="138.48" y2="130.95" fill="none" stroke="#ff4d29" stroke-miterlimit="10" stroke-width="10"/></svg>