<svg xmlns="http://www.w3.org/2000/svg" width="333.37" height="336.74" viewBox="0 0 333.37 336.74"><title>pet-icon</title><path d="M128.73,151.25c21.66,11.66,43.32-25,44.15-51.65s-18.32-55.82-30.82-69.15-32.49-5.83-36.65.84c0,0-5.77,4.69-9.72,17.14a86.57,86.57,0,0,0-3.61,26.18,110.77,110.77,0,0,0,3.61,27.87C101.38,124.25,113.38,143,128.73,151.25Z" transform="translate(-11.29 -19.57)" fill="#ffa040" stroke="#000" stroke-miterlimit="10" stroke-width="7"/><path d="M218.7,157.91c18.21,5.12,36-17.35,46.82-40.35,5-10.66,8.51-21.44,9.83-29.63,2.3-14.26-.23-35.62-9.83-47.84-7.78-9.9-20.21-13.79-38.49-3,0,0-30,19.16-34.16,48.32S192,150.41,218.7,157.91Z" transform="translate(-11.29 -19.57)" fill="#ffa040" stroke="#000" stroke-miterlimit="10" stroke-width="7"/><path d="M292.84,147.91s-16.18,11.56-27.32,28.39c-5.24,7.92-9.37,17-10.17,26.59-1.58,19,1.53,34,10.17,42.44,5,4.87,11.82,7.55,20.66,7.55,24.16,0,55-35,55-67.48S323.66,127.92,292.84,147.91Z" transform="translate(-11.29 -19.57)" fill="#ffa040" stroke="#000" stroke-miterlimit="10" stroke-width="7"/><path d="M95.69,215.84c3.94-7.58,4.62-18.59,2.22-34.6a69,69,0,0,0-2.22-9.78c-8.4-27.72-31.93-45.21-31.93-45.21-48.32-21.65-55,35.83-45,60.82s29.16,47.48,52.48,43.31C83.37,228.22,91.43,224,95.69,215.84Z" transform="translate(-11.29 -19.57)" fill="#ffa040" stroke="#000" stroke-miterlimit="10" stroke-width="7"/><path d="M265.52,279c-16.26-33.92-44.33-65.8-56.82-76.9-15-13.33-41.65-18.33-54.14-3.33,0,0-33.27,24.51-58.87,55.77C86,266.36,77.36,279.2,72.08,292c-16.41,40,2.63,59.13,23.61,60.67a38.16,38.16,0,0,0,10.55-.69c24.16-5,61.64-29.16,101.63-13.33,22.8,9,45,8.3,57.65-1.56,9.51-7.43,13.53-20,8.16-37.59A148.5,148.5,0,0,0,265.52,279Z" transform="translate(-11.29 -19.57)" fill="#ffa040" stroke="#000" stroke-miterlimit="10" stroke-width="7"/></svg>