<svg xmlns="http://www.w3.org/2000/svg" width="345.5" height="333.16" viewBox="0 0 345.5 333.16"><title>physical-activity-icon</title><path d="M345,189.08c0,91.45-77.34,167.58-172.75,167.58S-.5,280.53-.5,189.08,76.84,23.5,172.25,23.5,345,97.63,345,189.08Z" transform="translate(0.5 -23.5)" fill="#7986cb"/><rect x="73.15" y="249.61" width="160.3" height="22.38" rx="10" fill="#ff9800"/><path d="M264.92,179.21A9.69,9.69,0,0,1,270.57,192l-39.11,97.41a10.37,10.37,0,0,1-13.11,5.82l-3-1.11a9.69,9.69,0,0,1-5.65-12.74l39.12-97.41a10.37,10.37,0,0,1,13.11-5.82Z" transform="translate(0.5 -23.5)" fill="#ff9800"/><rect x="221" y="151.16" width="71.59" height="22.38" rx="10" fill="#ff9800"/><path d="M119.34,222.39l-24.91-6c-6.4,0-12,3.66-14,9-2.25,5.94,1.1,11.24,1.55,11.93l38.91,10.44a12.76,12.76,0,0,0,10.9,0A11.79,11.79,0,0,0,138,238.8l14-31.33,26.46,11.94-3.12,34.31a11.65,11.65,0,0,0,9.34,11.93,12.11,12.11,0,0,0,14-8.95l4.67-40.28a12.1,12.1,0,0,0,0-8.95c-2.44-5.85-8.75-7.33-9.34-7.45l-31.13-11.94,14-32.82,15.56,6c.52.34,6.05,3.82,12.45,1.49a13.56,13.56,0,0,0,7.78-7.46l15.57-22.37A11,11,0,0,0,225.16,118a12.19,12.19,0,0,0-15.56,1.49l-9.34,14.92a9.2,9.2,0,0,1-4.67,3c-3.44.84-6.59-.88-7.78-1.49,0,0-8.85-4.52-24.9-7.46a49.37,49.37,0,0,0-17.12,0l-29.57,7.46a19.84,19.84,0,0,0-6.22,4.48,19,19,0,0,0-4.67,9l-1.56,23.86a10.19,10.19,0,0,0,9.34,9,10.3,10.3,0,0,0,10.89-9l1.56-16.4,14-3Z" transform="translate(0.5 -23.5)" fill="#ff9800"/><ellipse cx="166.52" cy="81.05" rx="23.34" ry="22.38" fill="#ff9800"/></svg>