<svg xmlns="http://www.w3.org/2000/svg" width="285.83" height="381.72" viewBox="0 0 285.83 381.72"><title>power-failure-icon</title><path d="M215.84,336.09c-21.25,3.15-72.87.37-79.58,0a19.4,19.4,0,0,1-9.18-3.06c-2.73-1.79-5.75-5.29-9.18-18.36-1.67-6.37-2.51-9.55-3.06-15.31-2.18-22.65-41.09-54.27-61.22-88.75a143.83,143.83,0,0,1-18.36-55.1C28.7,95.73,67.12,50.46,68.93,48.39,106,6,169.2-11.5,225,8.6c62,22.34,99.88,85.64,94.88,143.85-2.51,29.22-15.32,51.41-24.49,64.28l-12.24-9.19c-27.83-20.15-65.9-14.92-85.7,9.19-21.92,26.69-16.32,70.28,15.31,91.82l15.3,6.12c1,2.59,3.51,9.88,0,15.3C225.26,334.32,219.84,335.5,215.84,336.09Z" transform="translate(-34.51 -0.28)" fill="#ff9800"/><rect x="239.19" y="228.7" width="12.99" height="54.1" rx="2.12" transform="translate(-143.39 248.35) rotate(-45)" fill="#ff9800"/><rect x="217.59" y="248.54" width="55.64" height="12.99" rx="2.12" transform="translate(-142.97 247.95) rotate(-45)" fill="#ff9800"/><circle cx="210.41" cy="254.7" r="44.38" fill="none" stroke="#7986cb" stroke-miterlimit="10" stroke-width="9"/><rect x="98.69" y="344.99" width="82.64" height="12.24" rx="1.95" fill="#ff9800"/><rect x="114" y="369.48" width="52.03" height="12.24" rx="1.95" fill="#ff9800"/><path d="M154.62,173.88l-30.6,49a12.19,12.19,0,0,0,18.36,15.3l91.82-91.82c.29-.31,4.89-5.44,3.06-12.24-1.89-7.07-8.88-9.1-9.18-9.18H200.53l24.49-49a12.19,12.19,0,0,0-18.36-15.31l-91.82,94.88c-.18.33-3.38,6.33,0,12.25a13,13,0,0,0,9.18,6.12Z" transform="translate(-34.51 -0.28)" fill="#fff"/><polygon points="141.54 161.35 92.57 161.35 178.27 72.6 144.6 136.87 190.51 136.87 101.75 228.69 141.54 161.35" fill="#ff9800"/></svg>