<svg xmlns="http://www.w3.org/2000/svg" ><title>short-term-icon</title><circle cx="172.5" cy="210" r="160" fill="#7986cb" stroke="#ff9800" stroke-miterlimit="10" stroke-width="25"/><path d="M282.5,206c0,4.4-4.5,8-10,8h-77c-5.5,0-10-3.6-10-8s4.5-8,10-8h77C278,198,282.5,201.6,282.5,206Z" fill="#ff9800"/><circle cx="168.5" cy="206" r="27" fill="#ff9800"/><path d="M190.35,32h-35.7A13.15,13.15,0,0,1,141.5,18.85v-5.7A13.15,13.15,0,0,1,154.65,0h35.7A13.15,13.15,0,0,1,203.5,13.15v5.7A13.15,13.15,0,0,1,190.35,32Z" fill="#ff9800"/><polyline points="172.5 32 172.5 40 172.5 50" fill="none" stroke="#ff9800" stroke-miterlimit="10" stroke-width="27"/><rect x="301" y="58.16" width="20.51" height="38.18" rx="10" transform="translate(36.54 242.71) rotate(-45)" fill="#ff9800"/><polyline points="304.05 84.55 297.5 91 287.5 101" fill="none" stroke="#ff9800" stroke-miterlimit="10" stroke-width="15"/><path d="M168.5,75v95a36.56,36.56,0,0,1,32,19h74c1,0,9.89.48,15,8a18.62,18.62,0,0,1,3,12h10c0-9.29-.8-55.92-38-94-34.94-35.77-77.94-39.41-88-40Z" fill="#ffb74d"/></svg>