<svg xmlns="http://www.w3.org/2000/svg" width="344" height="344" viewBox="0 0 344 344"><title>symptoms</title><path d="M234.42,235.69l-18.81-18.81A118.24,118.24,0,1,0,199.48,233l18.81,18.81" transform="translate(-0.6 -18)" fill="#785396"/><circle cx="123.64" cy="123.64" r="91.37" fill="#3fa9f5"/><path d="M32.87,141.64a91.37,91.37,0,0,1,182.74,0V147a91.37,91.37,0,0,0-182.74,0Z" transform="translate(-0.6 -18)" fill="#77cacb"/><path d="M339.22,337.6h0a19,19,0,0,1-18.91,19h-.11A19,19,0,0,1,307,351.25l-83.31-83.31a19,19,0,0,1,0-26.87h0a19,19,0,0,1,26.87,0l83.31,83.31A19,19,0,0,1,339.22,337.6Z" transform="translate(-0.6 -18)" fill="#785396"/><circle cx="123.64" cy="123.64" r="37.62" fill="#ffa040"/><path d="M161.86,141.64a37.63,37.63,0,0,1-75.25,0,30.35,30.35,0,0,1,.43-5.38,37.63,37.63,0,0,0,74.39,0A29.44,29.44,0,0,1,161.86,141.64Z" transform="translate(-0.6 -18)" fill="#cf4055"/><path d="M124.24,44.89A96.75,96.75,0,1,0,221,141.64,96.75,96.75,0,0,0,124.24,44.89Zm0,182.74a86,86,0,1,1,86-86A86,86,0,0,1,124.24,227.63Z" transform="translate(-0.6 -18)" fill="#231f20"/><path d="M337.45,320.4l-83.09-83.15a24.37,24.37,0,0,0-17.85-7L222.7,216.35A123.62,123.62,0,1,0,199,240.1l13.86,13.82a24.35,24.35,0,0,0,7,17.84L303,354.85A24,24,0,0,0,320.2,362a24.4,24.4,0,0,0,24.4-24.4h0A24,24,0,0,0,337.45,320.4ZM203.08,229a5.37,5.37,0,0,0-7.25-.32,112.9,112.9,0,1,1,15.42-15.43,5.37,5.37,0,0,0,.33,7.26l13.06,13a21.42,21.42,0,0,0-8.55,8.54ZM320.2,351.25a13.52,13.52,0,0,1-9.62-4l-83.1-83.14a13.61,13.61,0,0,1,0-19.23h0a13.61,13.61,0,0,1,19.24,0v0L329.87,328a13.65,13.65,0,0,1-9.67,23.27Z" transform="translate(-0.6 -18)" fill="#231f20"/><path d="M172.61,136.26h-5.7a43.72,43.72,0,0,0-8.7-21h0l7.47-7.47A5.4,5.4,0,1,0,158,100.2l-7.47,7.47h0a43.7,43.7,0,0,0-21-8.71V93.27a5.38,5.38,0,1,0-10.75,0V99a43.74,43.74,0,0,0-21,8.71h0l-7.47-7.47a5.4,5.4,0,0,0-7.63,7.63h0l7.47,7.47h0a43.74,43.74,0,0,0-8.71,21H75.87a5.38,5.38,0,1,0,0,10.75h5.69a43.7,43.7,0,0,0,8.71,21h0l-7.47,7.47a5.38,5.38,0,0,0,0,7.61l0,0a5.38,5.38,0,0,0,7.6,0l0,0,7.47-7.47h0a43.72,43.72,0,0,0,21,8.7V190a5.38,5.38,0,0,0,10.75,0v-5.7a43.68,43.68,0,0,0,21-8.7h0l7.47,7.47a5.39,5.39,0,0,0,7.61,0l0,0a5.38,5.38,0,0,0,0-7.6l0,0L158.21,168h0a43.68,43.68,0,0,0,8.7-21h5.7a5.38,5.38,0,0,0,0-10.75Zm-71.16,28.17a31.56,31.56,0,0,1-9-17.42h0a5.38,5.38,0,1,0,0-10.75h0a32.26,32.26,0,0,1,26.39-26.39h0a5.38,5.38,0,1,0,10.75,0h0A32.25,32.25,0,0,1,156,136.26h0A5.38,5.38,0,0,0,156,147h0a32.24,32.24,0,0,1-26.39,26.39h0a5.38,5.38,0,0,0-10.75,0h0A31.49,31.49,0,0,1,101.45,164.43Z" transform="translate(-0.6 -18)" fill="#231f20"/><circle cx="137.07" cy="115.58" r="8.06" fill="#231f20"/><circle cx="107.51" cy="118.26" r="5.37" fill="#231f20"/><circle cx="123.64" cy="134.39" r="5.37" fill="#231f20"/></svg>