<svg xmlns="http://www.w3.org/2000/svg" xmlns:xlink="http://www.w3.org/1999/xlink" width="239.07" height="172.69" viewBox="0 0 239.07 172.69"><defs><linearGradient id="a" x1="51.79" y1="61.43" x2="151.82" y2="119.19" gradientUnits="userSpaceOnUse"><stop offset="0" stop-color="#bb1921"/><stop offset="0.13" stop-color="#be1d21"/><stop offset="0.25" stop-color="#c52822"/><stop offset="0.37" stop-color="#d23b24"/><stop offset="0.45" stop-color="#dd4c25"/><stop offset="0.52" stop-color="#e05f22"/><stop offset="0.64" stop-color="#e47c1c"/><stop offset="0.77" stop-color="#e79218"/><stop offset="0.89" stop-color="#e99f16"/><stop offset="1" stop-color="#eaa315"/></linearGradient><linearGradient id="b" x1="90.93" y1="214.76" x2="203.27" y2="102.42" gradientUnits="userSpaceOnUse"><stop offset="0" stop-color="#c9181e"/><stop offset="0.18" stop-color="#d54626"/><stop offset="0.38" stop-color="#e0702e"/><stop offset="0.48" stop-color="#e48131"/><stop offset="0.62" stop-color="#e78f25"/><stop offset="0.83" stop-color="#e99e19"/><stop offset="1" stop-color="#eaa315"/></linearGradient><linearGradient id="c" x1="75.97" y1="134.69" x2="228.73" y2="46.5" gradientUnits="userSpaceOnUse"><stop offset="0" stop-color="#d0161b"/><stop offset="0.3" stop-color="#da4a25"/><stop offset="0.49" stop-color="#e0652b"/><stop offset="0.7" stop-color="#e58520"/><stop offset="0.88" stop-color="#e99b18"/><stop offset="1" stop-color="#eaa315"/></linearGradient><linearGradient id="d" x1="210.48" y1="75.43" x2="210.48" y2="75.43" gradientUnits="userSpaceOnUse"><stop offset="0" stop-color="#bb1921"/><stop offset="0.23" stop-color="#c8401e"/><stop offset="0.59" stop-color="#da7519"/><stop offset="0.85" stop-color="#e69616"/><stop offset="1" stop-color="#eaa315"/></linearGradient><linearGradient id="e" x1="115.81" y1="52.81" x2="184.31" y2="121.31" gradientUnits="userSpaceOnUse"><stop offset="0" stop-color="#bb1921"/><stop offset="0.21" stop-color="#ca2721"/><stop offset="0.38" stop-color="#da3620"/><stop offset="0.69" stop-color="#e26a1b"/><stop offset="1" stop-color="#eaa315"/></linearGradient><linearGradient id="f" x1="215.37" y1="43.68" x2="215.37" y2="43.68" gradientUnits="userSpaceOnUse"><stop offset="0" stop-color="#bb1921"/><stop offset="0.14" stop-color="#bf2420"/><stop offset="0.38" stop-color="#c9411e"/><stop offset="0.69" stop-color="#d86f19"/><stop offset="1" stop-color="#eaa315"/></linearGradient><linearGradient id="g" x1="21.81" y1="153.85" x2="21.81" y2="153.85" xlink:href="#e"/><linearGradient id="h" x1="73.79" y1="98.64" x2="139.15" y2="164" xlink:href="#e"/><linearGradient id="i" x1="38.71" y1="172.51" x2="176.1" y2="93.19" xlink:href="#c"/><linearGradient id="j" x1="36.05" y1="143.4" x2="82.01" y2="189.36" xlink:href="#e"/><linearGradient id="k" x1="10.34" y1="196.08" x2="109.19" y2="139.01" xlink:href="#c"/></defs><title>victoria-heat-icon</title><path d="M31,130.39C27.39,91.69,49.28,55,84.7,40A89.24,89.24,0,0,1,184.84,62H165.3c-21.42-17.63-50.56-22.39-75.71-12.21C61.46,61.17,42.91,89.35,43.18,120.62Z" transform="translate(-0.78 -33.09)" fill="url(#a)"/><path d="M62.72,186.56c35.17,26,82,25.23,112.35,0,36.74-30.55,29.69-80.61,29.31-83L194.61,106c.34,2.59,5.2,44.29-26.87,70.83-24.16,20-59.15,23-87.92,7.33Z" transform="translate(-0.78 -33.09)" fill="url(#b)"/><path d="M61.5,109.63c.12.2,1.27-.42,3.66-1.09a59.12,59.12,0,0,1,6.11-1.36,70.14,70.14,0,0,1,11.56-1c.45,0,18.67,1,17.75,1,28.2,2.34,31.75,2.45,31.75,2.45a156.46,156.46,0,0,0,51.29-7.33c21.73-6.93,35.18-16.6,39.07-19.54,10.41-7.85,17.88-16.09,17.1-17.1s-9,5.43-26.86,12.22c-.64.24-2.06.77-3.46,1.27-13.08,4.58-23.23,3.51-45.39,6-10.91,1.26-22.24,1.73-29.31,2.44-19.24,2-10.71,1.35-19.54,2.45-29.7,3.7-38.14,10.58-41.23,12.5C70.23,104.94,61.2,109.13,61.5,109.63Z" transform="translate(-0.78 -33.09)" fill="url(#c)"/><path d="M210.48,75.43" transform="translate(-0.78 -33.09)" fill="url(#d)"/><path d="M61.5,109.63c-.78-.87,5.58-7.87,9.77-12.22a98.44,98.44,0,0,1,17.1-14.65,89.2,89.2,0,0,1,26.86-12.21c5-1.26,10.21-2.06,19.54-2.44,10.07-.42,18.22.27,46.41,2.44,0,0,27.3,2.36,41.51,0a68.68,68.68,0,0,0,9.77-2.44c2.14-.72,7.12-2.85,7.33-2.45s-5.07,4.41-12.21,7.33c-2.2.9-3.3,1.18-7.33,2.44-8.89,2.79-10.77,3.84-14.65,4.89-9.23,2.48-14.36,2.72-39.08,4.88-7.32.64.36,0-26.86,2.44-17.54,1.56-19.5,1.67-24.43,2.45-7,1.1-17.73,2.75-29.31,7.32A135.94,135.94,0,0,0,69,105.59C64.68,108.14,62,110.14,61.5,109.63Z" transform="translate(-0.78 -33.09)" fill="url(#e)"/><path d="M215.37,43.68" transform="translate(-0.78 -33.09)" fill="url(#f)"/><path d="M21.81,153.85" transform="translate(-0.78 -33.09)" fill="url(#g)"/><path d="M25,148.59c-.95-1,6.28-7.11,9-9.45a87.32,87.32,0,0,1,15.68-11.35,90.7,90.7,0,0,1,24.65-9.46,97.36,97.36,0,0,1,17.92-1.89c9.23-.32,16.71.21,42.57,1.89,0,0,25.05,1.83,38.08,0a71.29,71.29,0,0,0,9-1.89c2-.55,6.53-2.2,6.73-1.89s-4.66,3.41-11.21,5.67c-2,.7-3,.92-6.72,1.89-8.15,2.17-9.88,3-13.44,3.79-8.46,1.92-13.17,2.11-35.85,3.78-6.71.5.33,0-24.64,1.89-16.09,1.21-17.89,1.29-22.4,1.89a143.92,143.92,0,0,0-26.89,5.68C33.31,143.7,25.89,149.58,25,148.59Z" transform="translate(-0.78 -33.09)" fill="url(#h)"/><path d="M24.79,148.39c.11.16,1.17-.32,3.36-.84,1.45-.33,3.34-.72,5.61-1a76.9,76.9,0,0,1,20.17,0c9.67,1.06,19.44,1.25,29.15,1.88a169.08,169.08,0,0,0,53.81-5.63c19.9-5.29,32-12.55,35.87-15,9.54-6,16.41-12.37,15.69-13.14s-8.29,4.17-24.66,9.39c-.58.18-1.88.6-3.17,1-12,3.52-21.33,2.69-41.67,4.65-10,1-20.41,1.33-26.9,1.88-17.66,1.5-9.83,1-17.94,1.88-27.26,2.84-37.51,7.9-40.35,9.39C30.3,144.56,24.52,148,24.79,148.39Z" transform="translate(-0.78 -33.09)" fill="url(#i)"/><path d="M.84,179.61c-.68-.76,4.49-5.43,6.4-7.22a63.23,63.23,0,0,1,11.2-8.67,61.82,61.82,0,0,1,17.61-7.21,64.59,64.59,0,0,1,12.8-1.45c6.6-.24,11.94.16,30.41,1.45,0,0,17.89,1.39,27.21,0a48.87,48.87,0,0,0,6.4-1.45c1.4-.42,4.66-1.68,4.8-1.44s-3.33,2.61-8,4.33c-1.44.53-2.16.7-4.8,1.44-5.83,1.65-7.06,2.27-9.61,2.89-6,1.47-9.4,1.61-25.6,2.89-4.8.38.23,0-17.61,1.44-11.49.92-12.77,1-16,1.45a97,97,0,0,0-19.21,4.33C6.81,175.87,1.52,180.36.84,179.61Z" transform="translate(-0.78 -33.09)" fill="url(#j)"/><path d="M1,179.59c.08.12-.58.4,1,0,1-.25,2.82-1.36,4.45-1.6A51.91,51.91,0,0,1,21,178c7,.8,14,.95,21,1.43a114.73,114.73,0,0,0,38.68-4.3c14.3-4,23-9.56,25.78-11.45,6.86-4.61,11.79-9.43,11.28-10s-6,3.18-17.73,7.16c-.42.14-1.35.45-2.28.74-8.63,2.69-15.33,2.06-29.95,3.55-7.19.74-14.67,1-19.33,1.43-12.69,1.15-7.07.79-12.89,1.43-19.6,2.17-27,6-29,7.16C4,176.5.8,179.3,1,179.59Z" transform="translate(-0.78 -33.09)" fill="url(#k)"/></svg>